<svg width="20.003906" height="20.003906" viewBox="0 0 20.0039 20.0039" fill="none" xmlns="http://www.w3.org/2000/svg" xmlns:xlink="http://www.w3.org/1999/xlink">
	<desc>
			Created with Pixso.
	</desc>
	<defs/>
	<path id="shape" d="M4.51 2.8C2.85 3.44 1.53 5.02 1.53 7.11C1.53 8.76 2.28 10.34 3.47 11.87C4.66 13.4 6.26 14.81 7.85 16.12C8.5 16.65 8.93 17 9.29 17.23C9.63 17.44 9.83 17.49 10 17.49C10.16 17.49 10.36 17.44 10.71 17.23C11.07 17 11.5 16.65 12.15 16.12C13.74 14.81 15.33 13.4 16.52 11.87C17.72 10.34 18.46 8.76 18.46 7.11C18.46 5.02 17.14 3.44 15.49 2.8C13.85 2.17 11.92 2.48 10.61 4.15C10.46 4.33 10.24 4.44 10 4.44C9.76 4.44 9.53 4.33 9.39 4.15C8.08 2.48 6.15 2.17 4.51 2.8ZM10 2.56C8.26 0.89 5.91 0.65 3.95 1.4C1.75 2.25 0 4.34 0 7.11C0 9.21 0.95 11.12 2.25 12.79C3.55 14.45 5.25 15.96 6.86 17.27L6.9 17.3C7.5 17.79 8 18.21 8.45 18.49C8.93 18.79 9.42 19 10 19C10.57 19 11.06 18.79 11.54 18.49C11.99 18.21 12.5 17.79 13.1 17.3L13.13 17.27C14.74 15.96 16.44 14.45 17.75 12.79C19.05 11.12 20 9.21 20 7.11C20 4.34 18.24 2.25 16.05 1.4C14.08 0.65 11.74 0.89 10 2.56Z" fill="#EE575C" fill-opacity="1.000000" fill-rule="evenodd"/>
</svg>
