
<svg width="20.000000" height="14.000000" viewBox="0 0 20 14" fill="none" xmlns="http://www.w3.org/2000/svg" xmlns:xlink="http://www.w3.org/1999/xlink">
	<desc>
			Created with Pixso.
	</desc>
	<defs/>
	<path d="M3 6C4.4 6 5.57 5.04 5.9 3.74C5.93 3.74 5.96 3.75 6 3.75L19 3.75C19.41 3.75 19.75 3.41 19.75 3C19.75 2.58 19.41 2.25 19 2.25L6 2.25C5.96 2.25 5.93 2.25 5.9 2.25C5.57 0.95 4.4 0 3 0C1.34 0 0 1.34 0 3C0 4.65 1.34 6 3 6ZM3 4.5C3.82 4.5 4.5 3.82 4.5 3C4.5 2.17 3.82 1.5 3 1.5C2.17 1.5 1.5 2.17 1.5 3C1.5 3.82 2.17 4.5 3 4.5ZM17 14C18.65 14 20 12.65 20 11C20 9.34 18.65 8 17 8C15.59 8 14.42 8.95 14.09 10.25C14.06 10.25 14.03 10.25 14 10.25L1 10.25C0.58 10.25 0.25 10.58 0.25 11C0.25 11.41 0.58 11.75 1 11.75L14 11.75C14.03 11.75 14.06 11.74 14.09 11.74C14.42 13.04 15.59 14 17 14ZM17 12.5C17.82 12.5 18.5 11.82 18.5 11C18.5 10.17 17.82 9.5 17 9.5C16.17 9.5 15.5 10.17 15.5 11C15.5 11.82 16.17 12.5 17 12.5Z" fill="#2F2F2F" fill-opacity="1.000000" fill-rule="evenodd"/>
</svg>
