<svg width="16.250000" height="15.625000" viewBox="0 0 16.25 15.625" fill="none" xmlns="http://www.w3.org/2000/svg" xmlns:xlink="http://www.w3.org/1999/xlink">
	<desc>
			Created with Pixso.
	</desc>
	<defs/>
	<path d="M0 0.62C0 0.27 0.27 0 0.62 0C1.89 0 2.98 0.87 3.26 2.11L3.53 3.33L12.31 3.33C13.94 3.33 15.4 4.32 15.99 5.83C16.12 6.15 15.96 6.51 15.64 6.64C15.32 6.77 14.96 6.61 14.83 6.29C14.42 5.26 13.42 4.58 12.31 4.58L3.83 4.58L5.16 9.64C5.47 10.83 6.54 11.66 7.78 11.66L11.45 11.66C11.8 11.66 12.08 11.94 12.08 12.29C12.08 12.63 11.8 12.91 11.45 12.91L7.78 12.91C5.98 12.91 4.4 11.7 3.95 9.96L2.55 4.63C2.53 4.59 2.52 4.55 2.51 4.51L2.46 4.29L2.42 4.11C2.41 4.07 2.4 4.03 2.4 4L2.04 2.38C1.89 1.72 1.3 1.25 0.62 1.25C0.27 1.25 0 0.97 0 0.62ZM14.58 8.12C14.58 7.77 14.3 7.5 13.95 7.5C13.61 7.5 13.33 7.77 13.33 8.12L13.33 9.16L12.29 9.16C11.94 9.16 11.66 9.44 11.66 9.79C11.66 10.13 11.94 10.41 12.29 10.41L13.33 10.41L13.33 11.45C13.33 11.8 13.61 12.08 13.95 12.08C14.3 12.08 14.58 11.8 14.58 11.45L14.58 10.41L15.62 10.41C15.97 10.41 16.25 10.13 16.25 9.79C16.25 9.44 15.97 9.16 15.62 9.16L14.58 9.16L14.58 8.12ZM5.62 15.62C6.08 15.62 6.45 15.25 6.45 14.79C6.45 14.33 6.08 13.95 5.62 13.95C5.16 13.95 4.79 14.33 4.79 14.79C4.79 15.25 5.16 15.62 5.62 15.62ZM13.12 14.79C13.12 15.25 12.75 15.62 12.29 15.62C11.83 15.62 11.45 15.25 11.45 14.79C11.45 14.33 11.83 13.95 12.29 13.95C12.75 13.95 13.12 14.33 13.12 14.79Z" fill="#FFFFFF" fill-opacity="1.000000" fill-rule="evenodd"/>
</svg>
