
<svg width="12.000000" height="15.000000" viewBox="0 0 12 15" fill="none" xmlns="http://www.w3.org/2000/svg" xmlns:xlink="http://www.w3.org/1999/xlink">
	<desc>
			Created with Pixso.
	</desc>
	<defs/>
	<path d="M6 7.5C8.07 7.5 9.75 5.82 9.75 3.75C9.75 1.67 8.07 0 6 0C3.92 0 2.25 1.67 2.25 3.75C2.25 5.82 3.92 7.5 6 7.5ZM6 6.37C7.45 6.37 8.62 5.19 8.62 3.75C8.62 2.3 7.45 1.12 6 1.12C4.54 1.12 3.37 2.3 3.37 3.75C3.37 5.19 4.54 6.37 6 6.37ZM6 15C9.31 15 12 13.48 12 11.62C12 9.76 9.31 8.25 6 8.25C2.68 8.25 0 9.76 0 11.62C0 13.48 2.68 15 6 15ZM9.69 13.03C10.61 12.51 10.87 11.97 10.87 11.62C10.87 11.27 10.61 10.73 9.69 10.21C8.8 9.71 7.5 9.37 6 9.37C4.5 9.37 3.19 9.71 2.3 10.21C1.38 10.73 1.12 11.27 1.12 11.62C1.12 11.97 1.38 12.51 2.3 13.03C3.19 13.53 4.5 13.87 6 13.87C7.5 13.87 8.8 13.53 9.69 13.03Z" fill="#686868" fill-opacity="1.000000" fill-rule="evenodd"/>
</svg>
