<svg width="18.000000" height="18.000000" viewBox="0 0 18 18" fill="none" xmlns="http://www.w3.org/2000/svg" xmlns:xlink="http://www.w3.org/1999/xlink">
	<desc>
			Created with Pixso.
	</desc>
	<defs>
		<clipPath id="clip3_1730">
			<rect id="iconixto/linear/cart" rx="-0.500000" width="17.000000" height="17.000000" transform="translate(0.500000 0.500000)" fill="white" fill-opacity="0"/>
		</clipPath>
	</defs>
	<rect id="iconixto/linear/cart" rx="-0.500000" width="17.000000" height="17.000000" transform="translate(0.500000 0.500000)" fill="#FFFFFF" fill-opacity="0"/>
	<g clip-path="url(#clip3_1730)">
		<path id="icon" d="M2.25 2.43C1.93 2.43 1.68 2.68 1.68 3C1.68 3.31 1.93 3.56 2.25 3.56C2.86 3.56 3.39 3.98 3.52 4.58L3.84 6.03C3.85 6.07 3.85 6.1 3.86 6.14L3.9 6.29L3.95 6.49C3.95 6.53 3.97 6.57 3.98 6.6L5.24 11.4C5.65 12.96 7.07 14.06 8.69 14.06L12.56 14.06C14.53 14.06 16.12 12.46 16.12 10.5L16.12 8.46C16.12 8.04 16.06 7.53 15.77 7.08C15.13 6.07 14 5.43 12.77 5.43L4.86 5.43L4.62 4.34C4.37 3.22 3.38 2.43 2.25 2.43ZM6.33 11.11L5.13 6.56L12.77 6.56C13.61 6.56 14.38 6.99 14.82 7.68C14.94 7.87 15 8.13 15 8.46L15 10.5C15 11.84 13.9 12.93 12.56 12.93L8.69 12.93C7.58 12.93 6.61 12.18 6.33 11.11ZM6.75 16.5C7.16 16.5 7.5 16.16 7.5 15.75C7.5 15.33 7.16 15 6.75 15C6.33 15 6 15.33 6 15.75C6 16.16 6.33 16.5 6.75 16.5ZM12.75 16.5C13.16 16.5 13.5 16.16 13.5 15.75C13.5 15.33 13.16 15 12.75 15C12.33 15 12 15.33 12 15.75C12 16.16 12.33 16.5 12.75 16.5Z" fill="#686868" fill-opacity="1.000000" fill-rule="evenodd"/>
	</g>
</svg>
