<svg width="14.062500" height="14.062500" viewBox="0 0 14.0625 14.0625" fill="none" xmlns="http://www.w3.org/2000/svg" xmlns:xlink="http://www.w3.org/1999/xlink">
	<desc>
			Created with Pixso.
	</desc>
	<defs/>
	<path d="M9.63 10.77C8.62 11.54 7.36 12 6 12C2.68 12 0 9.31 0 6C0 2.68 2.68 0 6 0C9.31 0 12 2.68 12 6C12 7.55 11.4 8.96 10.44 10.03C10.46 10.04 10.48 10.06 10.49 10.07L13.87 13.07C14.1 13.28 14.12 13.64 13.92 13.87C13.71 14.1 13.35 14.12 13.12 13.92L9.75 10.92C9.7 10.87 9.66 10.82 9.63 10.77ZM10.87 6C10.87 8.69 8.69 10.87 6 10.87C3.3 10.87 1.12 8.69 1.12 6C1.12 3.3 3.3 1.12 6 1.12C8.69 1.12 10.87 3.3 10.87 6Z" fill="#686868" fill-opacity="1.000000" fill-rule="evenodd"/>
</svg>
